<?xml version="1.0" encoding="UTF-8" standalone="no"?>
<svg
   xmlns:dc="http://purl.org/dc/elements/1.1/"
   xmlns:cc="http://creativecommons.org/ns#"
   xmlns:rdf="http://www.w3.org/1999/02/22-rdf-syntax-ns#"
   xmlns:svg="http://www.w3.org/2000/svg"
   xmlns="http://www.w3.org/2000/svg"
   xmlns:sodipodi="http://sodipodi.sourceforge.net/DTD/sodipodi-0.dtd"
   xmlns:inkscape="http://www.inkscape.org/namespaces/inkscape"
   version="1.1"
   x="0px"
   y="0px"
   viewBox="0 0 70.737 90.455002"
   enable-background="new 0 0 100 100"
   xml:space="preserve"
   id="svg14"
   sodipodi:docname="logo.svg"
   width="70.737"
   height="90.455002"
   inkscape:version="0.92.4 (5da689c313, 2019-01-14)"><metadata
     id="metadata20"><rdf:RDF><cc:Work
         rdf:about=""><dc:format>image/svg+xml</dc:format><dc:type
           rdf:resource="http://purl.org/dc/dcmitype/StillImage" /><dc:title></dc:title></cc:Work></rdf:RDF></metadata><defs
     id="defs18" /><sodipodi:namedview
     pagecolor="#ffffff"
     bordercolor="#666666"
     borderopacity="1"
     objecttolerance="10"
     gridtolerance="10"
     guidetolerance="10"
     inkscape:pageopacity="0"
     inkscape:pageshadow="2"
     inkscape:window-width="1920"
     inkscape:window-height="1001"
     id="namedview16"
     showgrid="false"
     inkscape:zoom="1.888"
     inkscape:cx="42.519424"
     inkscape:cy="32.668"
     inkscape:window-x="-9"
     inkscape:window-y="-9"
     inkscape:window-maximized="1"
     inkscape:current-layer="svg14" /><g
     id="g6"
     transform="translate(-14.631,-4.713)"><path
       d="m 73.616,29.424 c 0,-4.441 -3.603,-8.043 -8.041,-8.043 -2.007,0 -3.818,0.759 -5.229,1.974 -1.406,-1.214 -3.218,-1.974 -5.219,-1.974 -2.029,0 -3.86,0.776 -5.273,2.014 -1.416,-1.238 -3.246,-2.014 -5.273,-2.014 -4.441,0 -8.041,3.602 -8.041,8.043 0,3.329 2.027,6.19 4.912,7.41 V 49.391 H 68.7 v -12.56 c 2.889,-1.22 4.916,-4.078 4.916,-7.407 z"
       id="path2"
       inkscape:connector-curvature="0" /><rect
       x="41.452"
       y="53.404999"
       width="27.247999"
       height="4.0209999"
       id="rect4" /></g><path
     d="M 8.471,0 C 3.8,0 0,3.798 0,8.467 v 62.357 c 0,4.672 3.805,8.472 8.479,8.472 h 23.243 v 11.159 l 8.492,-5.038 8.482,5.038 V 79.299 l 17.717,0.003 v -12.24 h 4.324 V 0.005 Z M 61.707,74.589 48.697,74.588 V 71.202 H 31.723 v 3.386 H 8.479 c -2.078,0 -3.771,-1.688 -3.771,-3.764 0,-2.076 1.692,-3.765 3.771,-3.765 H 61.707 Z M 66.029,62.354 H 14.81 V 4.714 h 51.219 z"
     id="path8"
     inkscape:connector-curvature="0" /></svg>